<mxfile host="Electron" agent="Mozilla/5.0 (Macintosh; Intel Mac OS X 10_15_7) AppleWebKit/537.36 (KHTML, like Gecko) draw.io/24.7.17 Chrome/128.0.6613.36 Electron/32.0.1 Safari/537.36" version="24.7.17" pages="2">
  <diagram name="問題文と選択肢の表示" id="W5Cg5ooieRtP_ip7rSTT">
    <mxGraphModel dx="1114" dy="674" grid="1" gridSize="10" guides="1" tooltips="1" connect="1" arrows="1" fold="1" page="1" pageScale="1" pageWidth="827" pageHeight="1169" math="0" shadow="0">
      <root>
        <mxCell id="0" />
        <mxCell id="1" parent="0" />
        <mxCell id="Ffjtvh7U4prR11wW2jXg-1" value="&lt;h1 style=&quot;&quot;&gt;&lt;br&gt;&lt;/h1&gt;" style="whiteSpace=wrap;html=1;aspect=fixed;align=center;" vertex="1" parent="1">
          <mxGeometry x="80" y="50" width="470" height="470" as="geometry" />
        </mxCell>
        <mxCell id="Ffjtvh7U4prR11wW2jXg-2" value="&lt;h1 style=&quot;text-align: justify;&quot;&gt;問題画面&lt;/h1&gt;" style="text;html=1;align=center;verticalAlign=middle;whiteSpace=wrap;rounded=0;" vertex="1" parent="1">
          <mxGeometry x="80" y="60" width="120" height="30" as="geometry" />
        </mxCell>
        <mxCell id="Ffjtvh7U4prR11wW2jXg-3" value="問題文" style="rounded=1;whiteSpace=wrap;html=1;" vertex="1" parent="1">
          <mxGeometry x="120" y="121" width="390" height="140" as="geometry" />
        </mxCell>
        <mxCell id="Ffjtvh7U4prR11wW2jXg-4" value="&lt;ul&gt;&lt;li&gt;選択肢①&lt;/li&gt;&lt;li&gt;選択肢②&lt;/li&gt;&lt;li&gt;選択肢③&lt;/li&gt;&lt;li&gt;選択肢④&lt;/li&gt;&lt;/ul&gt;" style="rounded=1;whiteSpace=wrap;html=1;" vertex="1" parent="1">
          <mxGeometry x="120" y="290" width="390" height="100" as="geometry" />
        </mxCell>
        <mxCell id="Ffjtvh7U4prR11wW2jXg-5" value="次⇒" style="ellipse;whiteSpace=wrap;html=1;" vertex="1" parent="1">
          <mxGeometry x="440" y="440" width="80" height="50" as="geometry" />
        </mxCell>
        <mxCell id="Ffjtvh7U4prR11wW2jXg-6" value="" style="endArrow=classic;html=1;rounded=0;exitX=0;exitY=0.5;exitDx=0;exitDy=0;" edge="1" parent="1" source="Ffjtvh7U4prR11wW2jXg-7" target="Ffjtvh7U4prR11wW2jXg-5">
          <mxGeometry width="50" height="50" relative="1" as="geometry">
            <mxPoint x="590" y="360" as="sourcePoint" />
            <mxPoint x="640" y="310" as="targetPoint" />
          </mxGeometry>
        </mxCell>
        <mxCell id="Ffjtvh7U4prR11wW2jXg-7" value="ボタンを押したら次の問題が出力" style="rounded=0;whiteSpace=wrap;html=1;" vertex="1" parent="1">
          <mxGeometry x="600" y="330" width="120" height="60" as="geometry" />
        </mxCell>
        <mxCell id="Ffjtvh7U4prR11wW2jXg-9" value="問題数カウント" style="ellipse;whiteSpace=wrap;html=1;" vertex="1" parent="1">
          <mxGeometry x="420" y="60" width="90" height="50" as="geometry" />
        </mxCell>
      </root>
    </mxGraphModel>
  </diagram>
  <diagram name="問題数カウント" id="ZlNQcY9em6CrlkCSL9GU">
    <mxGraphModel dx="1114" dy="674" grid="1" gridSize="10" guides="1" tooltips="1" connect="1" arrows="1" fold="1" page="1" pageScale="1" pageWidth="827" pageHeight="1169" math="0" shadow="0">
      <root>
        <mxCell id="0UY7Y1f6Rbz9T6c8kPxo-0" />
        <mxCell id="0UY7Y1f6Rbz9T6c8kPxo-1" parent="0UY7Y1f6Rbz9T6c8kPxo-0" />
        <mxCell id="0UY7Y1f6Rbz9T6c8kPxo-2" value="&lt;h1 style=&quot;&quot;&gt;&lt;br&gt;&lt;/h1&gt;" style="whiteSpace=wrap;html=1;aspect=fixed;align=center;" vertex="1" parent="0UY7Y1f6Rbz9T6c8kPxo-1">
          <mxGeometry x="80" y="50" width="470" height="470" as="geometry" />
        </mxCell>
        <mxCell id="0UY7Y1f6Rbz9T6c8kPxo-3" value="&lt;h1 style=&quot;text-align: justify;&quot;&gt;問題画面&lt;/h1&gt;" style="text;html=1;align=center;verticalAlign=middle;whiteSpace=wrap;rounded=0;" vertex="1" parent="0UY7Y1f6Rbz9T6c8kPxo-1">
          <mxGeometry x="80" y="60" width="120" height="30" as="geometry" />
        </mxCell>
        <mxCell id="0UY7Y1f6Rbz9T6c8kPxo-4" value="問題文" style="rounded=1;whiteSpace=wrap;html=1;" vertex="1" parent="0UY7Y1f6Rbz9T6c8kPxo-1">
          <mxGeometry x="120" y="121" width="390" height="140" as="geometry" />
        </mxCell>
        <mxCell id="0UY7Y1f6Rbz9T6c8kPxo-5" value="&lt;ul&gt;&lt;li&gt;選択肢①&lt;/li&gt;&lt;li&gt;選択肢②&lt;/li&gt;&lt;li&gt;選択肢③&lt;/li&gt;&lt;li&gt;選択肢④&lt;/li&gt;&lt;/ul&gt;" style="rounded=1;whiteSpace=wrap;html=1;" vertex="1" parent="0UY7Y1f6Rbz9T6c8kPxo-1">
          <mxGeometry x="120" y="290" width="390" height="100" as="geometry" />
        </mxCell>
        <mxCell id="0UY7Y1f6Rbz9T6c8kPxo-6" value="次⇒" style="ellipse;whiteSpace=wrap;html=1;" vertex="1" parent="0UY7Y1f6Rbz9T6c8kPxo-1">
          <mxGeometry x="440" y="440" width="80" height="50" as="geometry" />
        </mxCell>
        <mxCell id="0UY7Y1f6Rbz9T6c8kPxo-9" value="問題数カウント" style="ellipse;whiteSpace=wrap;html=1;" vertex="1" parent="0UY7Y1f6Rbz9T6c8kPxo-1">
          <mxGeometry x="420" y="60" width="90" height="50" as="geometry" />
        </mxCell>
      </root>
    </mxGraphModel>
  </diagram>
</mxfile>
